<?xml version="1.0" encoding="UTF-8" standalone="no"?>
<!-- Created with Inkscape (http://www.inkscape.org/) -->

<svg
   xmlns:dc="http://purl.org/dc/elements/1.1/"
   xmlns:cc="http://creativecommons.org/ns#"
   xmlns:rdf="http://www.w3.org/1999/02/22-rdf-syntax-ns#"
   xmlns:svg="http://www.w3.org/2000/svg"
   xmlns="http://www.w3.org/2000/svg"
   xmlns:xlink="http://www.w3.org/1999/xlink"
   xmlns:sodipodi="http://sodipodi.sourceforge.net/DTD/sodipodi-0.dtd"
   xmlns:inkscape="http://www.inkscape.org/namespaces/inkscape"
   width="37.941078mm"
   height="14.272249mm"
   viewBox="0 0 37.941078 14.272249"
   version="1.1"
   id="svg8"
   inkscape:version="0.92.3 (2405546, 2018-03-11)"
   sodipodi:docname="logo.svg">
  <defs
     id="defs2" />
  <sodipodi:namedview
     id="base"
     pagecolor="#ffffff"
     bordercolor="#666666"
     borderopacity="1.0"
     inkscape:pageopacity="0.0"
     inkscape:pageshadow="2"
     inkscape:zoom="2"
     inkscape:cx="103.35014"
     inkscape:cy="-3.7250512"
     inkscape:document-units="mm"
     inkscape:current-layer="layer1"
     showgrid="false"
     fit-margin-top="2"
     fit-margin-left="2"
     fit-margin-right="2"
     fit-margin-bottom="2"
     inkscape:window-width="1920"
     inkscape:window-height="1053"
     inkscape:window-x="0"
     inkscape:window-y="27"
     inkscape:window-maximized="1" />
  <metadata
     id="metadata5">
    <rdf:RDF>
      <cc:Work
         rdf:about="">
        <dc:format>image/svg+xml</dc:format>
        <dc:type
           rdf:resource="http://purl.org/dc/dcmitype/StillImage" />
        <dc:title></dc:title>
      </cc:Work>
    </rdf:RDF>
  </metadata>
  <g
     inkscape:label="Layer 1"
     inkscape:groupmode="layer"
     id="layer1"
     transform="translate(-48.806946,-92.386928)">
    <path
       inkscape:connector-curvature="0"
       id="path4580"
       style="font-style:normal;font-weight:normal;font-size:medium;line-height:1.25;font-family:sans-serif;letter-spacing:0px;word-spacing:0px;fill:#000000;fill-opacity:1;stroke:none;stroke-width:0.26458332"
       d="m 54.997904,99.539068 q 0,-1.049032 -0.434082,-1.643311 -0.428914,-0.599446 -1.18339,-0.599446 -0.754476,0 -1.188558,0.599446 -0.428914,0.594279 -0.428914,1.643311 0,1.049032 0.428914,1.648482 0.434082,0.59427 1.188558,0.59427 0.754476,0 1.18339,-0.59427 0.434082,-0.59945 0.434082,-1.648482 z M 51.76296,97.518519 q 0.299723,-0.516764 0.754476,-0.764811 0.45992,-0.253214 1.09554,-0.253214 1.054199,0 1.71049,0.837158 0.661458,0.837158 0.661458,2.201416 0,1.364262 -0.661458,2.201412 -0.656291,0.83716 -1.71049,0.83716 -0.63562,0 -1.09554,-0.24805 -0.454753,-0.25321 -0.754476,-0.76997 v 0.86816 h -0.956014 v -8.040852 h 0.956014 z" />
    <path
       inkscape:connector-curvature="0"
       id="path4582"
       style="font-style:normal;font-weight:normal;font-size:medium;line-height:1.25;font-family:sans-serif;letter-spacing:0px;word-spacing:0px;fill:#000000;fill-opacity:1;stroke:none;stroke-width:0.26458332"
       d="m 60.914856,97.528855 q -0.160197,-0.09302 -0.3514,-0.134359 -0.186035,-0.04651 -0.413412,-0.04651 -0.806152,0 -1.240234,0.5271 -0.428914,0.521932 -0.428914,1.503784 v 3.04891 h -0.956014 v -5.787761 h 0.956014 v 0.89917 q 0.299723,-0.5271 0.780314,-0.780314 0.480591,-0.258382 1.167887,-0.258382 0.09819,0 0.217041,0.0155 0.118856,0.01034 0.26355,0.03617 z" />
    <path
       inkscape:connector-curvature="0"
       id="path4588"
       style="font-style:normal;font-weight:normal;font-size:medium;line-height:1.25;font-family:sans-serif;letter-spacing:0px;word-spacing:0px;fill:#000000;fill-opacity:1;stroke:none;stroke-width:0.26458332"
       d="m 79.833596,99.296188 v 0.465088 H 75.46177 q 0.06201,0.981854 0.589112,1.498614 0.532267,0.5116 1.477946,0.5116 0.54777,0 1.059366,-0.13436 0.516765,-0.13436 1.023194,-0.40308 v 0.89917 q -0.511597,0.21705 -1.049032,0.33073 -0.537435,0.11369 -1.090373,0.11369 -1.384928,0 -2.196248,-0.80615 -0.806152,-0.80615 -0.806152,-2.180746 0,-1.421102 0.764811,-2.253092 0.769979,-0.837158 2.072225,-0.837158 1.167887,0 1.844848,0.754475 0.682129,0.749309 0.682129,2.041219 z M 78.88275,99.017136 q -0.01033,-0.780314 -0.43925,-1.245402 -0.423746,-0.465088 -1.126546,-0.465088 -0.795817,0 -1.276408,0.449585 -0.475423,0.449585 -0.54777,1.266072 z" />
    <path
       inkscape:connector-curvature="0"
       id="path4590"
       style="font-style:normal;font-weight:normal;font-size:medium;line-height:1.25;font-family:sans-serif;letter-spacing:0px;word-spacing:0px;fill:#000000;fill-opacity:1;stroke:none;stroke-width:0.26458332"
       d="m 84.748025,97.528855 q -0.160197,-0.09302 -0.3514,-0.134359 -0.186035,-0.04651 -0.413411,-0.04651 -0.806152,0 -1.240234,0.5271 -0.428915,0.521932 -0.428915,1.503784 v 3.04891 h -0.956014 v -5.787761 h 0.956014 v 0.89917 q 0.299724,-0.5271 0.780314,-0.780314 0.480591,-0.258382 1.167888,-0.258382 0.09819,0 0.217041,0.0155 0.118855,0.01034 0.263549,0.03617 z" />
    <circle
       style="fill:#0046cf;fill-opacity:1;stroke:none;stroke-width:0.26458332;stroke-miterlimit:4;stroke-dasharray:none;stroke-opacity:1"
       id="path4554"
       cx="63.392357"
       cy="100.0307"
       r="0.62602305" />
    <g
       id="g4872">
      <path
         d="m 63.937927,97.306646 q -0.764811,0 -1.209228,0.599446 -0.444418,0.594279 -0.444418,1.632976 0,1.038692 0.43925,1.638142 0.444417,0.59428 1.214396,0.59428 0.759644,0 1.204061,-0.59945 0.444417,-0.59944 0.444417,-1.632972 0,-1.028361 -0.444417,-1.627808 -0.444417,-0.604614 -1.204061,-0.604614 z m 0,-0.806152 q 1.240234,0 1.948202,0.806152 0.707967,0.806152 0.707967,2.232422 0,1.421102 -0.707967,2.232422 -0.707968,0.80615 -1.948202,0.80615 -1.245402,0 -1.953369,-0.80615 -0.702799,-0.81132 -0.702799,-2.232422 0,-1.42627 0.702799,-2.232422 0.707967,-0.806152 1.953369,-0.806152 z"
         style="font-style:normal;font-weight:normal;font-size:medium;line-height:1.25;font-family:sans-serif;letter-spacing:0px;word-spacing:0px;fill:#000000;fill-opacity:1;stroke:none;stroke-width:0.26458332"
         id="path4584"
         inkscape:connector-curvature="0" />
      <use
         transform="translate(6.3500003)"
         height="100%"
         width="100%"
         id="use4646"
         xlink:href="#path4584"
         y="0"
         x="0" />
    </g>
    <use
       x="0"
       y="0"
       xlink:href="#path4554"
       id="use4648"
       width="100%"
       height="100%"
       transform="translate(6.3500003)" />
    <path
       sodipodi:nodetypes="ccccc"
       inkscape:connector-curvature="0"
       id="use4650"
       style="font-style:normal;font-weight:normal;font-size:10.58333302px;line-height:1.25;font-family:sans-serif;letter-spacing:0px;word-spacing:0px;fill:#000000;fill-opacity:1;stroke:none;stroke-width:0.26458332"
       d="m 72.005277,96.409436 h 0.950846 v 7.989174 h -0.950846 c 0.05648,-3.77625 0,-6.944571 0,-7.989174 z" />
    <path
       style="fill:#0a0a0a;stroke-width:0.07429153"
       d="m 67.969481,104.57188 c -0.77269,-0.30236 -1.026197,-0.92973 -0.562898,-1.39303 0.341489,-0.34149 0.637684,-0.30219 1.169784,0.15522 0.507593,0.43634 0.953614,0.59524 1.653914,0.58922 0.647495,-0.005 0.985378,-0.12605 1.075704,-0.38358 0.05545,-0.1581 0.04273,-0.23318 -0.05853,-0.34508 -0.158724,-0.17539 -0.461894,-0.24071 -0.698931,-0.15058 -0.12789,0.0486 -0.169113,0.0428 -0.147922,-0.0207 0.09903,-0.29709 0.701326,-0.24661 1.034656,0.0867 0.248391,0.24839 0.266291,0.43084 0.06713,0.68406 -0.442072,0.56201 -2.772902,1.07517 -3.532843,0.7778 z m -3.528851,-0.0818 c -0.867333,-0.19277 -1.649255,-0.53556 -1.780327,-0.78046 -0.189159,-0.35345 -1.48e-4,-0.71475 0.46649,-0.89154 0.292203,-0.11072 0.380704,-0.10037 0.581264,0.0679 l 0.175387,0.14718 -0.238713,-0.0445 c -0.131294,-0.0245 -0.323098,-0.0233 -0.426234,0.003 -0.222463,0.0558 -0.434009,0.34738 -0.371073,0.5114 0.134633,0.35085 1.286017,0.49626 2.001813,0.25281 0.206834,-0.0704 0.563434,-0.2907 0.804647,-0.49721 0.517078,-0.4427 0.747841,-0.47517 1.105502,-0.15561 0.196806,0.17585 0.240924,0.27051 0.240924,0.51693 0,0.34675 -0.27589,0.7007 -0.681434,0.87422 -0.292861,0.12531 -1.306677,0.12328 -1.878246,-0.004 z"
       id="path4868"
       inkscape:connector-curvature="0"
       sodipodi:nodetypes="cccccccccccccccccccccccsccc" />
  </g>
</svg>
